<svg version="1.1" id="Layer_1" xmlns="http://www.w3.org/2000/svg" xmlns:xlink="http://www.w3.org/1999/xlink" x="0px" y="0px"
	 width="100%" viewBox="0 0 176 176" enable-background="new 0 0 176 176" xml:space="preserve">
<path fill="#000000" opacity="1.000000" stroke="none" 
	d="
M49.745514,135.373688 
	C49.097393,133.787811 48.513775,132.906204 46.861038,132.621613 
	C39.325523,131.324066 30.814520,119.817093 31.960587,112.326271 
	C32.419041,109.329765 32.749699,106.450272 32.286854,103.432083 
	C32.008263,101.615395 32.210629,99.390945 33.699501,98.311485 
	C37.313023,95.691620 36.492302,92.610489 35.818737,88.988098 
	C34.390068,81.304832 33.648457,73.502541 33.723717,65.663628 
	C33.741108,63.852211 33.980453,61.989830 34.468296,60.249168 
	C35.110069,57.959282 35.247902,54.248734 38.253651,54.663445 
	C41.562359,55.119957 40.121979,58.779652 39.991043,60.977566 
	C39.552238,68.343483 40.596020,75.568817 41.594563,83.381836 
	C43.886673,75.675499 43.885719,67.747902 48.793217,61.922485 
	C48.314075,61.009491 48.222816,60.659012 48.001228,60.440987 
	C46.024826,58.496353 41.530289,58.062130 42.871658,54.128365 
	C44.021767,50.755508 47.765419,51.984924 50.409214,51.987648 
	C59.184223,51.996693 63.397701,45.586765 67.250259,39.510929 
	C71.863190,32.235905 75.344299,24.241623 82.357872,18.300610 
	C80.278442,16.801964 78.641571,17.366093 77.123207,17.677164 
	C61.482845,20.881409 51.293995,31.381971 42.444092,43.667370 
	C41.421814,45.086494 41.988186,46.507305 42.205173,47.978077 
	C42.426468,49.478016 41.780411,50.654190 40.250298,50.997990 
	C38.460476,51.400146 37.350861,50.376007 36.893135,48.776550 
	C36.121040,46.078556 36.754333,43.459202 37.841515,40.989471 
	C44.920464,24.908298 57.380974,15.275122 74.166153,10.930436 
	C77.542152,10.056589 80.980003,9.402006 84.412422,8.772128 
	C87.107590,8.277544 89.817932,8.036246 91.254120,11.208362 
	C92.246796,13.400865 94.238121,12.917377 96.019943,12.987077 
	C102.198906,13.228778 107.834778,14.842540 112.339767,19.373564 
	C113.893768,20.936562 115.056007,22.738031 115.805649,24.803123 
	C116.413948,26.478878 116.529060,28.113449 114.898483,29.303547 
	C113.173439,30.562605 111.724533,29.791056 110.533539,28.419390 
	C108.147301,25.671179 105.071732,24.171017 101.660683,23.122673 
	C95.204857,21.138556 90.876350,22.479580 85.582703,29.022448 
	C91.846199,26.947716 97.299919,25.896044 102.868378,26.749891 
	C105.411057,27.139778 109.385521,27.011415 109.301170,30.071655 
	C109.194687,33.934399 105.050735,32.475418 102.836136,32.229958 
	C94.404778,31.295456 87.475052,36.188988 79.705849,37.717064 
	C78.255989,38.002235 77.739922,39.882572 77.087280,41.220356 
	C74.718338,46.076183 71.157196,50.058643 67.619507,54.033943 
	C63.786278,58.341354 58.868900,60.540249 53.480999,60.593796 
	C47.992241,71.916817 46.503876,83.682571 45.972958,95.726906 
	C45.672707,102.538307 42.722702,103.973526 37.431408,100.166046 
	C37.350681,108.308060 35.188450,116.377815 40.928173,123.465538 
	C42.852337,125.841583 44.315033,128.573181 48.136009,126.978653 
	C49.500008,126.409439 50.884140,126.818771 51.539886,128.227325 
	C53.363705,132.144913 55.107998,136.101135 56.794418,140.079941 
	C57.218056,141.079437 56.855175,142.088654 55.820580,142.615540 
	C54.739021,143.166336 53.887985,142.537491 53.181255,141.813507 
	C51.505878,140.097275 50.825745,137.821732 49.745514,135.373688 
z"/>
<path fill="#000000" opacity="1.000000" stroke="none" 
	d="
M127.697525,144.739502 
	C134.016953,137.710327 137.058365,130.013580 136.200180,120.721657 
	C135.882645,117.283638 135.812393,113.476768 138.523819,109.719154 
	C141.724701,114.003586 139.338852,118.783768 141.402054,122.791985 
	C144.144684,113.820236 146.904175,104.864372 144.463135,94.929527 
	C143.155991,95.831810 142.263565,98.389648 140.027496,97.089806 
	C138.220627,96.039474 138.067322,94.001328 137.950806,92.234123 
	C137.348007,83.090195 136.415237,73.999069 134.093246,65.108604 
	C131.112793,53.697090 126.149284,43.589680 115.712791,37.003296 
	C114.139389,36.010338 111.800049,35.031002 112.269409,32.581738 
	C112.695816,30.356613 115.004654,31.321220 116.457222,30.794041 
	C126.385147,27.190922 131.366943,28.571461 137.992355,36.546898 
	C143.863190,43.613995 147.639191,51.662773 149.631790,60.570213 
	C150.062592,62.495995 150.162720,64.517670 150.210892,66.500137 
	C150.248917,68.065033 149.716354,69.548485 147.971817,69.978149 
	C146.174286,70.420853 145.071854,69.192154 144.460373,67.817375 
	C143.657059,66.011353 143.067261,64.080360 142.626724,62.148144 
	C140.666534,53.550774 137.139984,45.840939 130.520157,39.769329 
	C129.255508,40.563915 130.026047,41.318993 130.411423,41.874523 
	C135.818115,49.668602 138.675720,58.498383 140.979218,67.566315 
	C141.298553,68.823418 141.064560,70.678856 142.393951,71.139809 
	C146.025909,72.399139 145.507446,74.982643 144.781967,77.615356 
	C143.367935,82.746857 143.265244,86.758575 147.663422,91.450569 
	C152.030182,96.109077 150.271484,103.441872 149.490173,109.621643 
	C148.973267,113.709999 147.462952,117.673317 147.187561,121.858818 
	C147.075195,123.566544 146.502792,125.565475 145.050766,126.191055 
	C140.955811,127.955307 140.616928,131.897751 138.855087,135.159454 
	C133.231750,145.569962 126.633163,155.400269 118.561821,164.080887 
	C115.285126,167.604935 111.017792,169.959274 104.689545,168.992340 
	C108.448227,163.708115 114.997566,163.298035 118.059830,158.544098 
	C121.032219,153.929672 124.331841,149.526016 127.697525,144.739502 
z"/>
<path fill="#000000" opacity="1.000000" stroke="none" 
	d="
M86.846252,124.392563 
	C91.415810,124.844734 95.636261,125.184776 99.655777,124.104691 
	C105.617485,122.502693 111.223137,127.134483 117.249161,124.709396 
	C118.558403,124.182503 119.282600,126.204056 118.929474,127.595253 
	C118.540779,129.126602 117.708160,130.285736 115.714798,129.712769 
	C102.865807,126.019432 90.030739,127.485703 77.185028,129.813553 
	C74.753983,130.254105 72.253136,130.324600 69.780571,130.514877 
	C68.412407,130.620163 67.666290,129.736008 67.171417,128.609863 
	C66.739670,127.627357 66.786896,126.655128 67.543663,125.837646 
	C68.524284,124.778336 69.489113,125.027298 70.616180,125.763435 
	C73.434914,127.604485 76.357628,126.854836 79.188179,125.766312 
	C81.532127,124.864914 83.851204,124.012421 86.846252,124.392563 
z"/>
<path fill="#000000" opacity="1.000000" stroke="none" 
	d="
M102.037178,104.985420 
	C100.374969,104.580887 99.464668,103.625656 99.580208,101.812485 
	C100.038414,94.621704 97.583206,87.774765 97.055809,80.690056 
	C96.712006,76.071754 97.797066,73.459709 101.569839,71.464600 
	C102.456726,71.863647 102.847893,72.685684 102.595032,73.488289 
	C100.340515,80.644272 102.509621,87.547951 103.780334,94.480804 
	C104.423668,97.990768 104.950119,101.367851 102.223061,104.699005 
	C102.006393,104.999786 102.037178,104.985420 102.037178,104.985420 
z"/>
<path fill="#000000" opacity="1.000000" stroke="none" 
	d="
M66.197815,91.149673 
	C65.074921,89.513107 64.252708,88.102661 63.316364,86.496429 
	C61.968143,85.615471 60.439468,88.156281 58.896439,86.659340 
	C61.974808,79.619392 73.921898,78.009323 78.865891,83.997749 
	C78.010666,86.059364 76.143799,84.231567 74.760948,85.151573 
	C73.440475,88.849182 72.957123,94.076332 66.197815,91.149673 
z"/>
<path fill="#000000" opacity="1.000000" stroke="none" 
	d="
M119.242294,78.476089 
	C122.317863,79.590103 125.328384,80.170288 126.542389,83.257217 
	C125.139641,85.059448 123.534538,83.010201 121.983398,84.072227 
	C121.392799,86.829376 120.477158,89.858498 116.762169,90.023026 
	C113.308907,90.175964 111.809769,87.815598 111.237709,84.761635 
	C110.895569,82.935127 108.734444,84.137939 107.885513,82.181641 
	C110.537491,78.445656 114.382973,77.651848 119.242294,78.476089 
z"/>
<path fill="#000000" opacity="1.000000" stroke="none" 
	d="
M43.055309,121.800980 
	C40.488777,118.712517 38.598240,115.932861 41.954502,112.427284 
	C43.430653,110.885460 40.436878,108.203667 43.235065,106.312973 
	C45.662868,107.905602 46.361179,110.356064 46.182625,113.039261 
	C46.038818,115.200356 45.869717,117.240891 46.504959,119.414307 
	C47.308636,122.163994 46.150528,123.291054 43.055309,121.800980 
z"/>
<path fill="#000000" opacity="1.000000" stroke="none" 
	d="
M74.712906,67.645058 
	C76.111465,67.886642 77.048843,68.171471 76.825020,70.212540 
	C70.914223,69.770966 65.072479,72.420357 58.867653,70.424667 
	C63.546322,66.919563 68.980919,67.470428 74.712906,67.645058 
z"/>
<path fill="#000000" opacity="1.000000" stroke="none" 
	d="
M117.098984,64.872360 
	C120.220329,65.232109 123.147408,64.348808 126.372543,67.102890 
	C120.619408,69.139549 115.589302,68.201096 109.681618,67.927658 
	C111.813110,64.535690 114.371880,65.052086 117.098984,64.872360 
z"/>
<path fill="#000000" opacity="1.000000" stroke="none" 
	d="
M96.224716,134.433578 
	C91.719528,135.101669 87.706871,135.066498 83.841385,132.923782 
	C90.343735,132.542725 96.832039,132.355499 104.396690,131.615204 
	C101.469719,134.169327 99.060135,134.290283 96.224716,134.433578 
z"/>
<path fill="#000000" opacity="1.000000" stroke="none" 
	d="
M101.993530,105.010513 
	C103.945488,104.825661 105.912956,104.619247 107.664726,106.557983 
	C105.193306,108.235863 102.704353,110.220207 99.919510,108.136047 
	C98.527306,107.094147 100.352852,105.979546 101.762749,105.158875 
	C102.037178,104.985420 102.006393,104.999786 101.993530,105.010513 
z"/>
<path fill="#000000" opacity="1.000000" stroke="none" 
	d="
M83.749054,105.761795 
	C85.765541,105.683960 87.405212,105.600655 89.030327,105.718361 
	C90.206757,105.803574 91.424217,106.243446 91.200974,107.757622 
	C90.983658,109.231606 89.487221,109.627922 88.555588,109.186821 
	C86.713905,108.314827 83.160202,109.872040 83.749054,105.761795 
z"/>
</svg>